<svg width="470" height="70" viewBox="0 0 470 70" fill="none" xmlns="http://www.w3.org/2000/svg">
<path d="M51.648 34.608C51.648 41.52 50.672 47.584 48.72 52.8C46.8 57.984 43.92 62.032 40.08 64.944C36.24 67.824 31.488 69.264 25.824 69.264C20.192 69.264 15.44 67.856 11.568 65.04C7.728 62.192 4.832 58.192 2.88 53.04C0.960002 47.856 2.20537e-06 41.728 2.20537e-06 34.656C2.20537e-06 27.744 0.960002 21.696 2.88 16.512C4.832 11.296 7.728 7.248 11.568 4.368C15.44 1.456 20.192 0 25.824 0C31.488 0 36.24 1.408 40.08 4.224C43.92 7.04 46.8 11.04 48.72 16.224C50.672 21.408 51.648 27.536 51.648 34.608ZM38.112 34.608C38.112 26.224 37.152 20.016 35.232 15.984C33.344 11.92 30.208 9.888 25.824 9.888C21.44 9.888 18.288 11.92 16.368 15.984C14.48 20.048 13.536 26.272 13.536 34.656C13.536 43.072 14.512 49.296 16.464 53.328C18.416 57.328 21.536 59.328 25.824 59.328C30.272 59.328 33.424 57.296 35.28 53.232C37.168 49.168 38.112 42.96 38.112 34.608ZM125.733 11.136V29.328H149.253V38.88H125.733V58.176H154.293V67.824H112.581V1.44H153.957L152.613 11.136H125.733ZM208.4 21.072C208.4 24.272 207.76 27.072 206.48 29.472C205.232 31.872 203.52 33.888 201.344 35.52C199.2 37.152 196.784 38.416 194.096 39.312L212.288 67.824H197.216L181.52 41.376H175.472V67.824H162.368V1.44H181.904C190.64 1.44 197.232 3.056 201.68 6.288C206.16 9.52 208.4 14.448 208.4 21.072ZM194.768 21.072C194.768 17.488 193.728 14.912 191.648 13.344C189.568 11.744 186.432 10.944 182.24 10.944H175.472V32.064H182.672C186.544 32.064 189.52 31.2 191.6 29.472C193.712 27.744 194.768 24.944 194.768 21.072ZM261.162 21.072C261.162 24.272 260.522 27.072 259.242 29.472C257.994 31.872 256.282 33.888 254.106 35.52C251.962 37.152 249.546 38.416 246.858 39.312L265.05 67.824H249.978L234.282 41.376H228.234V67.824H215.13V1.44H234.666C243.402 1.44 249.994 3.056 254.442 6.288C258.922 9.52 261.162 14.448 261.162 21.072ZM247.53 21.072C247.53 17.488 246.49 14.912 244.41 13.344C242.33 11.744 239.194 10.944 235.002 10.944H228.234V32.064H235.434C239.306 32.064 242.282 31.2 244.362 29.472C246.474 27.744 247.53 24.944 247.53 21.072ZM310.277 1.44V11.28H296.213V57.984H310.277V67.824H268.997V57.984H283.061V11.28H268.997V1.44H310.277ZM354.303 34.32C354.303 29.392 353.839 25.408 352.911 22.368C352.015 19.328 350.783 17.008 349.215 15.408C347.647 13.776 345.871 12.672 343.887 12.096C341.903 11.52 339.839 11.232 337.695 11.232H332.799V58.08H337.743C339.983 58.08 342.095 57.728 344.079 57.024C346.095 56.32 347.871 55.104 349.407 53.376C350.943 51.616 352.143 49.2 353.007 46.128C353.871 43.024 354.303 39.088 354.303 34.32ZM368.031 34.32C368.031 39.76 367.439 44.416 366.255 48.288C365.103 52.16 363.503 55.376 361.455 57.936C359.407 60.464 357.039 62.448 354.351 63.888C351.695 65.328 348.847 66.352 345.807 66.96C342.799 67.536 339.743 67.824 336.639 67.824H319.647V1.44H335.487C339.615 1.44 343.615 1.888 347.487 2.784C351.359 3.648 354.831 5.248 357.903 7.584C361.007 9.92 363.471 13.248 365.295 17.568C367.119 21.856 368.031 27.44 368.031 34.32ZM389.545 11.136V29.328H413.065V38.88H389.545V58.176H418.105V67.824H376.393V1.44H417.77L416.426 11.136H389.545Z" fill="white"/>
<path d="M78.8265 56.544L93.2265 1.44H106.667L86.4105 67.824H70.7625L50.6025 1.44H64.5705L78.8265 56.544Z" fill="white"/>
<path d="M432.132 9.648L469.476 32.736V42.672L432.42 65.76L426.42 56.976L458.58 37.728L426.42 18.864L432.132 9.648Z" fill="#8C37F4"/>
</svg>
